{"title":"The Prestige (2006) 720p BRRip HEVC x265 [Dual-Audio][English 5.","uid":12030726,"size":1408559000,"categoryP":"video","categoryS":"movies","magnet":"?xt=urn:btih:5a3fd149b7baae6fe7d6bf5684281f8686313567&amp;dn=The+Prestige+%282006%29+720p+BRRip+HEVC+x265+%5BDual-Audio%5D%5BEnglish+5.&amp;tr=udp%3A%2F%2Ftracker.openbittorrent.com%3A80&amp;tr=udp%3A%2F%2Fopen.demonii.com%3A1337&amp;tr=udp%3A%2F%2Ftracker.coppersurfer.tk%3A6969&amp;tr=udp%3A%2F%2Fexodus.desync.com%3A6969","seeders":8,"leechers":10,"uploader":"praneet_gupta777","files":3,"time":1434609690,"description":"[center]\n[b][size=7]The Prestige (2006) 720p BRRip HEVC x265 [Dual-Audio][English 5.1+Hindi 2.0] Esubs [PKG][/size][/b]\n\n\n\n\n\n[img]http://extraimago.com/images/2015/06/18/The-Prestige-2006-Front-Cover-41999.jpg[/img]\n\n\n[img]http://extraimago.com/images/2015/06/18/Untitled.png[/img]\n\n\n\n[img]http://img9.uploadhouse.com/fileuploads/15981/15981250a2a3770f9f004bcdf00afac92833ebdb.png[/img]\n\n\n[quote]\n\n\nGeneral\nUnique ID                   : 203333493849673924751060854375972421419 (0x98F89B4051F08FF9A7CA227407B93F2B)\nComplete name               : G:The Prestige (2006) 720p BRRip HEVC x265 [Dual-Audio][English 5.1+Hindi 2.0] Esubs [PKG]The Prestige (2006) 720p BRRip HEVC x265 [Dual-Audio][English 5.1+Hindi 2.0] Esubs [PKG].mkv\nFormat                      : Matroska\nFormat version              : Version 2\nFile size                   : 1.31 GiB\nDuration                    : 2h 10mn\nOverall bit rate            : 1 434 Kbps\nEncoded date                : UTC 2015-06-17 07:58:57\nWriting application         : mkvmerge v7.7.0 ('Six Voices') 32bit built on Feb 28 2015 23:23:00\nNUMBER_OF_FRAMES            : 1551\nNUMBER_OF_BYTES             : 59448\n\nVideo\nID                          : 1\nFormat                      : HEVC\nFormat/Info                 : High Efficiency Video Coding\nCodec ID                    : V_MPEGH/ISO/HEVC\nDuration                    : 2h 10mn\nBit rate                    : 1 085 Kbps\nWidth                       : 1 280 pixels\nHeight                      : 544 pixels\nDisplay aspect ratio        : 2.35:1\nFrame rate mode             : Constant\nFrame rate                  : 23.976 fps\nBits/(Pixel*Frame)          : 0.065\nStream size                 : 1 013 MiB (76%)\nTitle                       : [PKG]\nDefault                     : Yes\nForced                      : No\n\nAudio #1\nID                          : 2\nFormat                      : AC-3\nFormat/Info                 : Audio Coding 3\nMode extension              : CM (complete main)\nFormat settings, Endianness : Big\nCodec ID                    : A_AC3\nDuration                    : 2h 10mn\nBit rate mode               : Constant\nBit rate                    : 160 Kbps\nChannel(s)                  : 2 channels\nChannel positions           : Front: L R\nSampling rate               : 48.0 KHz\nBit depth                   : 16 bits\nCompression mode            : Lossy\nStream size                 : 149 MiB (11%)\nTitle                       : [PKG]\nLanguage                    : Hindi\nDefault                     : Yes\nForced                      : No\n\nAudio #2\nID                          : 3\nFormat                      : AC-3\nFormat/Info                 : Audio Coding 3\nMode extension              : CM (complete main)\nFormat settings, Endianness : Big\nCodec ID                    : A_AC3\nDuration                    : 2h 10mn\nBit rate mode               : Constant\nBit rate                    : 160 Kbps\nChannel(s)                  : 6 channels\nChannel positions           : Front: L C R, Side: L R, LFE\nSampling rate               : 48.0 KHz\nBit depth                   : 16 bits\nCompression mode            : Lossy\nStream size                 : 149 MiB (11%)\nTitle                       : [PKG]\nLanguage                    : English\nDefault                     : No\nForced                      : No\n\nText\nID                          : 4\nFormat                      : UTF-8\nCodec ID                    : S_TEXT/UTF8\nCodec ID/Info               : UTF-8 Plain Text\nTitle                       : [PKG]\nLanguage                    : English\nDefault                     : Yes\nForced                      : No\n\n\n[color=navy][size=6][b]SAMPLE WITHIN TORRENT[/b][/size][/color]\n\n\n\n\n\n[img]http://icons.iconarchive.com/icons/tribalmarkings/colorflow/256/screenshots-icon.png[/img]\n\n\n\n[img]http://extraimago.com/images/2015/06/17/vlcsnap-2015-06-16-23h33m08s244.png[/img]\n\n[img]http://extraimago.com/images/2015/06/17/vlcsnap-2015-06-16-23h34m28s29.png[/img]\n\n[img]http://extraimago.com/images/2015/06/17/vlcsnap-2015-06-16-23h34m35s94.png[/img]\n\n[img]http://extraimago.com/images/2015/06/17/vlcsnap-2015-06-16-23h35m30s135.png[/img]\n\n[img]http://extraimago.com/images/2015/06/17/vlcsnap-2015-06-17-14h03m43s103.png[/img]\n\n[img]http://extraimago.com/images/2015/06/17/vlcsnap-2015-06-17-14h08m03s124.png[/img]\n\n[img]http://extraimago.com/images/2015/06/17/ThePrestige2006720pBRRipHEVCx265Dual-AudioEnglish5.1Hindi2.0EsubsPKG.mkv_thumbs_2015.06.17_21.43.24.jpg[/img]\n\n\n\n\n[b]Use a reputed media player that can play H.265 (HEVC : High Efficiency Video Coding) Video support.\nMedia Player Classic - Home Cinema and MPC-BE are recommended!.. VLC is OKay, but MPC variants are preferred.\nVLC and players like latest GOM, KMP/PotP with LAV can play HEVC.\n\nAnd also use latest K-Lite Codec Pack.\n\nIn Mobile, Android, Tabs, use a media player like VLC Player, MX Player... that can play H.265 :]\nFor more info, read the How_to_Play_ file inside the torrent.\n\n\nBe aware that all HEVC rips will not play on any stand-alone device. You can only watch this on a computer or on devices which have HEVC support.\nBe sure that you have the latest versions of VLC or Media Player Classic or SMPlayer. Earlier versions may not work[/b]\n\n\n\n[/center]","torrent":{"xt":"urn:btih:5a3fd149b7baae6fe7d6bf5684281f8686313567","amp;dn":"The+Prestige+%282006%29+720p+BRRip+HEVC+x265+%5BDual-Audio%5D%5BEnglish+5.","amp;tr":["udp%3A%2F%2Ftracker.openbittorrent.com%3A80","udp%3A%2F%2Fopen.demonii.com%3A1337","udp%3A%2F%2Ftracker.coppersurfer.tk%3A6969","udp%3A%2F%2Fexodus.desync.com%3A6969"],"infoHash":"5a3fd149b7baae6fe7d6bf5684281f8686313567","infoHashBuffer":{"type":"Buffer","data":[90,63,209,73,183,186,174,111,231,214,191,86,132,40,31,134,134,49,53,103]},"announce":[],"urlList":[]}}